# xmcd
#
# Track frame offsets:
#	150
#	13485
#	31372
#	53325
#	67532
#	89037
#	112702
#	126625
#	140552
#	153230
#	166767
#	178862
#
# Disc length: 2575 seconds
# Revision: 0
# Processed by: cddbd v1.5.2PL0 Copyright (c) Steve Scherf et al.
# Submitted via: dBpowerAMP V12.0
#
DISCID=990a0d0c
DTITLE=Various Artist - Blues Box, Vol. 1
DYEAR=1996
DGENRE=Blues
TTITLE0=Elmore James - Dust My Broom
TTITLE1=John Lee Hooker - House Rent Boogie
TTITLE2=James Cotton - Dealing With The Devil
TTITLE3=Ray Charles - Kissa Me Baby
TTITLE4=Michael Bloomfield - Cherry Red
TTITLE5=B. B. King - You Done Lost Your Good Thing Now
TTITLE6=Big Joe Turne - TV Mama
TTITLE7=Louis Jordan - Ain't Nobody Here But Us Chickens
TTITLE8=Jimmy Reed - Shame, Shame, Shame
TTITLE9=Elmore James - Standing At The Crossroads
TTITLE10=John Lee Hooker - I'm Mad Again
TTITLE11=Lightnin' Hopkins - Santa Fe Blues
EXTD=
EXTT0=
EXTT1=
EXTT2=
EXTT3=
EXTT4=
EXTT5=
EXTT6=
EXTT7=
EXTT8=
EXTT9=
EXTT10=
EXTT11=
PLAYORDER=
